<svg width="56" height="30" viewBox="0 0 56 30" fill="none" xmlns="http://www.w3.org/2000/svg">
<path d="M3.45703 18.4053L10.5469 22.1406L9.96094 25.5098L0.820312 20.0605L1.23047 17.8486L3.45703 18.4053ZM11.7041 15.4902L3.66211 19.123L0.893555 19.709L1.33301 17.2041L12.3486 11.7842L11.7041 15.4902ZM50.2885 6.67188L39.0238 29.8311H36.7826L48.0766 6.67188H50.2885ZM53.9377 18.7422L46.218 14.6113L46.6867 11.96L55.9885 17.4971L55.6955 19.1084L53.9377 18.7422ZM44.8996 22.2432L53.7766 18.1709L55.9299 17.834L55.6076 19.6357L44.3723 25.2021L44.8996 22.2432Z" fill="#404451"/>
<path d="M26.2178 28L25.4178 20.56H16.3378L13.0578 28H8.41781L21.2578 0.0799994H27.2578L30.7778 28H26.2178ZM23.7378 4.48H23.3778L17.9378 16.84H25.0578L23.7378 4.48Z" fill="#5653F4"/>
<path d="M32.3622 28.288C31.5942 28.288 31.0182 28.08 30.6342 27.664C30.2502 27.248 30.0582 26.68 30.0582 25.96C30.0582 25.816 30.0742 25.648 30.1062 25.456C30.1382 25.248 30.1702 25.032 30.2022 24.808L31.3782 17.704H27.9702L28.3062 15.616H30.6102C31.0742 15.616 31.4182 15.528 31.6422 15.352C31.8662 15.16 32.0182 14.832 32.0982 14.368L32.6262 11.248H35.0262L34.3062 15.616H39.2982L38.9622 17.704H33.9462L32.5782 25.912L33.0582 26.152L37.7622 22.816L39.0342 24.352L36.8502 25.984C36.3062 26.4 35.8262 26.752 35.4102 27.04C35.0102 27.328 34.6342 27.568 34.2822 27.76C33.9302 27.936 33.6022 28.064 33.2982 28.144C32.9942 28.24 32.6822 28.288 32.3622 28.288Z" fill="#1E2027"/>
</svg>
