<svg width="174" height="33" viewBox="0 0 174 33" fill="none" xmlns="http://www.w3.org/2000/svg">
<path d="M3.60938 17.207L13.0625 22.1875L12.2812 26.6797L0.09375 19.4141L0.640625 16.4648L3.60938 17.207ZM14.6055 13.3203L3.88281 18.1641L0.191406 18.9453L0.777344 15.6055L15.4648 8.37891L14.6055 13.3203ZM158.924 1.5625L143.905 32.4414H140.916L155.975 1.5625H158.924ZM171.19 17.6562L160.897 12.1484L161.522 8.61328L173.924 15.9961L173.534 18.1445L171.19 17.6562ZM159.139 22.3242L170.975 16.8945L173.846 16.4453L173.416 18.8477L158.436 26.2695L159.139 22.3242Z" fill="#E0DFFB"/>
<path d="M33.3038 30L32.5038 22.56H23.4238L20.1438 30H15.5037L28.3438 2.08H34.3438L37.8638 30H33.3038ZM30.8238 6.48H30.4638L25.0238 18.84H32.1438L30.8238 6.48ZM44.4081 30H40.0481L44.6881 2.08H54.7281C57.1281 2.08 58.9148 2.72 60.0881 4C61.2881 5.28 61.8881 6.94666 61.8881 9C61.8881 11.6667 61.2081 13.8133 59.8481 15.44C58.5148 17.04 56.6348 18.0133 54.2081 18.36L58.7681 30H54.0881L50.0081 18.68H46.2881L44.4081 30ZM52.2081 15.12C55.0081 15.12 56.6081 13.92 57.0081 11.52L57.2481 10.08C57.2748 9.94667 57.3015 9.74667 57.3281 9.48C57.3548 9.21333 57.3681 8.96 57.3681 8.72C57.3681 6.74667 56.1815 5.76 53.8081 5.76H48.4881L46.9281 15.12H52.2081ZM75.2325 5.8L71.1925 30H66.7925L70.8325 5.8H62.0325L62.6725 2.08H84.6725L84.0325 5.8H75.2325ZM87.9769 30.48C85.3635 30.48 83.3502 29.76 81.9369 28.32C80.5235 26.8533 79.8169 24.6267 79.8169 21.64C79.8169 19.7733 80.0969 18.0667 80.6569 16.52C81.2169 14.9467 81.9902 13.6 82.9769 12.48C83.9902 11.3333 85.1902 10.4533 86.5769 9.84C87.9902 9.2 89.5235 8.88 91.1769 8.88C92.1902 8.88 93.1235 9 93.9769 9.24C94.8302 9.48 95.5635 9.84 96.1769 10.32C96.8169 10.7733 97.3102 11.3467 97.6569 12.04C98.0035 12.7333 98.1769 13.5333 98.1769 14.44C98.1769 15.16 98.0035 15.9067 97.6569 16.68C97.3369 17.4533 96.6435 18.1733 95.5769 18.84C94.5369 19.5067 93.0169 20.0667 91.0169 20.52C89.0435 20.9733 86.4169 21.24 83.1369 21.32C83.1102 21.5333 83.0969 21.7333 83.0969 21.92C83.0969 22.08 83.0969 22.1867 83.0969 22.24C83.0969 22.96 83.1635 23.6533 83.2969 24.32C83.4302 24.9867 83.6835 25.5867 84.0569 26.12C84.4302 26.6267 84.9502 27.04 85.6169 27.36C86.2835 27.6533 87.1635 27.8 88.2569 27.8C89.0035 27.8 89.6702 27.72 90.2569 27.56C90.8702 27.3733 91.4435 27.1067 91.9769 26.76C92.5369 26.3867 93.0702 25.92 93.5769 25.36C94.1102 24.7733 94.6702 24.0667 95.2569 23.24L97.4569 24.6C96.2835 26.52 94.9502 27.9867 93.4569 29C91.9902 29.9867 90.1635 30.48 87.9769 30.48ZM90.8969 11.48C88.8169 11.48 87.1235 12.1067 85.8169 13.36C84.5102 14.6133 83.7102 16.4133 83.4169 18.76L83.3769 19.16C85.8835 19.08 87.8969 18.8933 89.4169 18.6C90.9635 18.28 92.1369 17.9067 92.9369 17.48C93.7635 17.0533 94.3102 16.5867 94.5769 16.08C94.8435 15.5733 94.9769 15.0667 94.9769 14.56C94.9769 14.1333 94.8969 13.7333 94.7369 13.36C94.6035 12.9867 94.3769 12.6667 94.0569 12.4C93.7369 12.1067 93.3102 11.88 92.7769 11.72C92.2702 11.56 91.6435 11.48 90.8969 11.48ZM109.681 30.48C108.401 30.48 107.268 30.2667 106.281 29.84C105.321 29.4133 104.508 28.8267 103.841 28.08C103.201 27.3067 102.708 26.3867 102.361 25.32C102.041 24.2267 101.881 23.04 101.881 21.76C101.881 19.7867 102.161 18.0133 102.721 16.44C103.281 14.84 104.041 13.48 105.001 12.36C105.961 11.24 107.081 10.3867 108.361 9.8C109.668 9.18667 111.055 8.88 112.521 8.88C113.615 8.88 114.561 9.01333 115.361 9.28C116.188 9.54667 116.895 9.90667 117.481 10.36C118.068 10.7867 118.535 11.3067 118.881 11.92C119.255 12.5333 119.535 13.1733 119.721 13.84L117.041 14.88C116.641 13.6 116.041 12.7333 115.241 12.28C114.468 11.8267 113.441 11.6 112.161 11.6C110.401 11.6 108.961 12.1733 107.841 13.32C106.748 14.4667 106.015 16.12 105.641 18.28L105.241 20.68C105.161 21.16 105.108 21.5333 105.081 21.8C105.055 22.0667 105.041 22.3333 105.041 22.6C105.041 24.36 105.495 25.6667 106.401 26.52C107.335 27.3467 108.561 27.76 110.081 27.76C110.535 27.76 110.988 27.7067 111.441 27.6C111.921 27.4933 112.428 27.2667 112.961 26.92C113.521 26.5733 114.121 26.0667 114.761 25.4C115.401 24.7333 116.135 23.84 116.961 22.72L119.201 24.04C118.561 25.08 117.908 26.0133 117.241 26.84C116.575 27.64 115.855 28.3067 115.081 28.84C114.335 29.3733 113.508 29.7733 112.601 30.04C111.721 30.3333 110.748 30.48 109.681 30.48ZM128.186 0.4H131.306L128.986 14.24H129.146C129.919 12.5867 130.839 11.28 131.906 10.32C132.972 9.36 134.346 8.88 136.026 8.88C137.759 8.88 139.119 9.4 140.106 10.44C141.119 11.48 141.626 12.9467 141.626 14.84C141.626 15.24 141.599 15.68 141.546 16.16C141.519 16.6133 141.466 17.0667 141.386 17.52L139.306 30H136.186L138.226 17.8C138.306 17.32 138.359 16.8933 138.386 16.52C138.412 16.12 138.426 15.8133 138.426 15.6C138.426 14.3733 138.146 13.4133 137.586 12.72C137.026 12 136.159 11.64 134.986 11.64C134.079 11.64 133.266 11.84 132.546 12.24C131.852 12.64 131.212 13.1867 130.626 13.88C130.519 14.0133 130.346 14.2267 130.106 14.52C129.892 14.7867 129.666 15.1333 129.426 15.56C129.186 15.96 128.959 16.4267 128.746 16.96C128.532 17.4667 128.372 18.0133 128.266 18.6L126.346 30H123.226L128.186 0.4Z" fill="#8198DB"/>
</svg>
