<svg width="621" height="413" viewBox="0 0 621 413" fill="none" xmlns="http://www.w3.org/2000/svg">
<path d="M608.838 320.072H136.485C133.26 320.068 130.169 318.786 127.889 316.508C125.609 314.23 124.327 311.14 124.323 307.918V16.8629C124.326 14.5023 125.265 12.2392 126.935 10.5699C128.606 8.90073 130.871 7.96176 133.233 7.95903H611.936C614.339 7.96176 616.643 8.91695 618.342 10.615C620.042 12.3131 620.997 14.6154 621 17.0168V307.918C620.996 311.14 619.714 314.23 617.434 316.508C615.154 318.786 612.063 320.068 608.838 320.072Z" fill="#F2F2F2"/>
<path d="M593.566 304.727H153.345C146.892 304.727 141.642 299.814 141.642 293.776V40.3212C141.642 35.8428 145.532 32.1992 150.314 32.1992H596.453C601.314 32.1992 605.269 35.9029 605.269 40.4549V293.776C605.269 299.814 600.019 304.727 593.566 304.727Z" fill="white"/>
<path d="M620.831 18.3774H124.152V12.19C124.157 8.95711 125.445 5.85812 127.733 3.57286C130.021 1.2876 133.123 0.00268062 136.358 0H608.624C611.86 0.00265336 614.962 1.28756 617.25 3.57283C619.538 5.8581 620.826 8.95709 620.831 12.19V18.3774Z" fill="#3F3D56"/>
<path d="M146.335 12.362C148.079 12.362 149.492 10.9495 149.492 9.20703C149.492 7.46456 148.079 6.05202 146.335 6.05202C144.591 6.05202 143.178 7.46456 143.178 9.20703C143.178 10.9495 144.591 12.362 146.335 12.362Z" fill="white"/>
<path d="M158.319 12.362C160.063 12.362 161.477 10.9495 161.477 9.20703C161.477 7.46456 160.063 6.05202 158.319 6.05202C156.576 6.05202 155.162 7.46456 155.162 9.20703C155.162 10.9495 156.576 12.362 158.319 12.362Z" fill="white"/>
<path d="M170.303 12.362C172.047 12.362 173.461 10.9495 173.461 9.20703C173.461 7.46456 172.047 6.05202 170.303 6.05202C168.56 6.05202 167.146 7.46456 167.146 9.20703C167.146 10.9495 168.56 12.362 170.303 12.362Z" fill="white"/>
<path d="M363.012 87.6174H276.914C275.63 87.6174 274.399 87.1078 273.492 86.2009C272.584 85.2939 272.074 84.0637 272.074 82.781C272.074 81.4983 272.584 80.2682 273.492 79.3612C274.399 78.4542 275.63 77.9446 276.914 77.9446H363.012C364.295 77.9446 365.526 78.4542 366.434 79.3612C367.342 80.2682 367.851 81.4983 367.851 82.781C367.851 84.0637 367.342 85.2939 366.434 86.2009C365.526 87.1078 364.295 87.6174 363.012 87.6174Z" fill="#CCCCCC"/>
<path d="M469.997 87.6174H383.899C382.616 87.6174 381.385 87.1078 380.477 86.2009C379.569 85.2939 379.059 84.0637 379.059 82.781C379.059 81.4983 379.569 80.2682 380.477 79.3612C381.385 78.4542 382.616 77.9446 383.899 77.9446H469.997C471.28 77.9446 472.511 78.4542 473.419 79.3612C474.327 80.2682 474.837 81.4983 474.837 82.781C474.837 84.0637 474.327 85.2939 473.419 86.2009C472.511 87.1078 471.28 87.6174 469.997 87.6174Z" fill="#CCCCCC"/>
<path d="M469.997 105.945H320.218C318.934 105.945 317.703 105.435 316.795 104.528C315.888 103.621 315.378 102.391 315.378 101.108C315.378 99.8256 315.888 98.5955 316.795 97.6885C317.703 96.7815 318.934 96.2719 320.218 96.2719H469.997C471.28 96.2719 472.511 96.7815 473.419 97.6885C474.327 98.5955 474.837 99.8256 474.837 101.108C474.837 102.391 474.327 103.621 473.419 104.528C472.511 105.435 471.28 105.945 469.997 105.945Z" fill="#CCCCCC"/>
<path d="M363.012 69.0355H276.914C275.631 69.0339 274.402 68.5237 273.496 67.6169C272.589 66.7101 272.08 65.4808 272.08 64.1992C272.08 62.9175 272.589 61.6883 273.496 60.7814C274.402 59.8746 275.631 59.3644 276.914 59.3628H363.012C363.648 59.362 364.278 59.4865 364.866 59.7292C365.453 59.9719 365.988 60.328 366.438 60.7772C366.888 61.2264 367.245 61.7598 367.488 62.347C367.732 62.9341 367.857 63.5635 367.857 64.1992C367.857 64.8348 367.732 65.4642 367.488 66.0513C367.245 66.6385 366.888 67.1719 366.438 67.6211C365.988 68.0703 365.453 68.4264 364.866 68.6691C364.278 68.9118 363.648 69.0363 363.012 69.0355Z" fill="#CCCCCC"/>
<path d="M410.391 69.2901H385.937C384.653 69.2901 383.422 68.7805 382.515 67.8735C381.607 66.9665 381.097 65.7364 381.097 64.4537C381.097 63.171 381.607 61.9409 382.515 61.0339C383.422 60.1269 384.653 59.6173 385.937 59.6173H410.391C411.674 59.6173 412.905 60.1269 413.813 61.0339C414.721 61.9409 415.231 63.171 415.231 64.4537C415.231 65.7364 414.721 66.9665 413.813 67.8735C412.905 68.7805 411.674 69.2901 410.391 69.2901Z" fill="#CCCCCC"/>
<path d="M301.368 105.945H276.914C275.631 105.943 274.402 105.433 273.496 104.526C272.589 103.619 272.08 102.39 272.08 101.108C272.08 99.8266 272.589 98.5974 273.496 97.6906C274.402 96.7837 275.631 96.2735 276.914 96.2719H301.368C302.004 96.2711 302.634 96.3957 303.222 96.6384C303.81 96.8811 304.344 97.2372 304.794 97.6863C305.244 98.1355 305.601 98.669 305.845 99.2561C306.088 99.8433 306.214 100.473 306.214 101.108C306.214 101.744 306.088 102.373 305.845 102.96C305.601 103.548 305.244 104.081 304.794 104.53C304.344 104.979 303.81 105.336 303.222 105.578C302.634 105.821 302.004 105.945 301.368 105.945Z" fill="#CCCCCC"/>
<path d="M363.012 259.236H276.914C275.63 259.236 274.399 258.727 273.492 257.82C272.584 256.913 272.074 255.683 272.074 254.4C272.074 253.117 272.584 251.887 273.492 250.98C274.399 250.073 275.63 249.564 276.914 249.564H363.012C363.647 249.564 364.277 249.689 364.864 249.932C365.451 250.175 365.984 250.531 366.434 250.98C366.883 251.429 367.24 251.962 367.483 252.549C367.726 253.136 367.851 253.765 367.851 254.4C367.851 255.035 367.726 255.664 367.483 256.251C367.24 256.838 366.883 257.371 366.434 257.82C365.984 258.269 365.451 258.625 364.864 258.868C364.277 259.111 363.647 259.236 363.012 259.236Z" fill="#CCCCCC"/>
<path d="M469.997 259.236H383.899C382.616 259.236 381.385 258.727 380.477 257.82C379.569 256.913 379.059 255.683 379.059 254.4C379.059 253.117 379.569 251.887 380.477 250.98C381.385 250.073 382.616 249.564 383.899 249.564H469.997C470.632 249.564 471.262 249.689 471.849 249.932C472.436 250.175 472.97 250.531 473.419 250.98C473.869 251.429 474.225 251.962 474.468 252.549C474.711 253.136 474.837 253.765 474.837 254.4C474.837 255.035 474.711 255.664 474.468 256.251C474.225 256.838 473.869 257.371 473.419 257.82C472.97 258.269 472.436 258.625 471.849 258.868C471.262 259.111 470.632 259.236 469.997 259.236Z" fill="#CCCCCC"/>
<path d="M469.997 277.564H320.218C318.934 277.564 317.703 277.054 316.795 276.147C315.888 275.24 315.378 274.01 315.378 272.727C315.378 271.445 315.888 270.214 316.795 269.307C317.703 268.4 318.934 267.891 320.218 267.891H469.997C470.633 267.89 471.263 268.015 471.851 268.257C472.439 268.5 472.973 268.856 473.423 269.305C473.873 269.755 474.23 270.288 474.474 270.875C474.717 271.462 474.843 272.092 474.843 272.727C474.843 273.363 474.717 273.992 474.474 274.579C474.23 275.167 473.873 275.7 473.423 276.149C472.973 276.598 472.439 276.955 471.851 277.197C471.263 277.44 470.633 277.564 469.997 277.564Z" fill="#CCCCCC"/>
<path d="M363.012 240.655H276.914C275.63 240.655 274.399 240.145 273.492 239.238C272.584 238.331 272.074 237.101 272.074 235.818C272.074 234.535 272.584 233.305 273.492 232.398C274.399 231.491 275.63 230.982 276.914 230.982H363.012C364.295 230.982 365.526 231.491 366.434 232.398C367.342 233.305 367.851 234.535 367.851 235.818C367.851 237.101 367.342 238.331 366.434 239.238C365.526 240.145 364.295 240.655 363.012 240.655Z" fill="#CCCCCC"/>
<path d="M410.391 240.909H385.937C384.653 240.909 383.422 240.4 382.515 239.493C381.607 238.586 381.097 237.355 381.097 236.073C381.097 234.79 381.607 233.56 382.515 232.653C383.422 231.746 384.653 231.236 385.937 231.236H410.391C411.674 231.236 412.905 231.746 413.813 232.653C414.721 233.56 415.231 234.79 415.231 236.073C415.231 237.355 414.721 238.586 413.813 239.493C412.905 240.4 411.674 240.909 410.391 240.909Z" fill="#CCCCCC"/>
<path d="M301.368 277.564H276.914C275.63 277.564 274.399 277.054 273.492 276.147C272.584 275.24 272.074 274.01 272.074 272.727C272.074 271.445 272.584 270.214 273.492 269.307C274.399 268.4 275.63 267.891 276.914 267.891H301.368C302.004 267.89 302.634 268.015 303.222 268.257C303.81 268.5 304.344 268.856 304.794 269.305C305.244 269.755 305.601 270.288 305.845 270.875C306.088 271.462 306.214 272.092 306.214 272.727C306.214 273.363 306.088 273.992 305.845 274.579C305.601 275.167 305.244 275.7 304.794 276.149C304.344 276.598 303.81 276.955 303.222 277.197C302.634 277.44 302.004 277.564 301.368 277.564Z" fill="#CCCCCC"/>
<path d="M340.526 207.314C338.698 207.318 336.944 206.601 335.643 205.318L303.279 173.381C302.644 172.754 302.139 172.007 301.795 171.184C301.451 170.361 301.273 169.477 301.273 168.585C301.273 167.693 301.451 166.809 301.795 165.986C302.139 165.162 302.644 164.416 303.279 163.789L335.513 131.981C336.856 130.662 338.665 129.926 340.547 129.932C342.43 129.938 344.235 130.685 345.569 132.012C346.905 133.35 347.655 135.163 347.655 137.053C347.655 138.943 346.905 140.755 345.569 142.093L321.617 166.029C320.871 166.777 320.452 167.789 320.452 168.845C320.452 169.901 320.871 170.914 321.617 171.661L345.439 195.467C346.412 196.437 347.075 197.674 347.344 199.021C347.612 200.368 347.475 201.764 346.948 203.033C346.422 204.302 345.531 205.386 344.387 206.148C343.244 206.91 341.9 207.316 340.526 207.314Z" fill="#5653F4"/>
<path d="M392.096 207.314C390.722 207.316 389.378 206.91 388.234 206.148C387.091 205.386 386.2 204.302 385.673 203.033C385.147 201.764 385.01 200.368 385.278 199.021C385.547 197.674 386.21 196.437 387.182 195.467L411.005 171.661C411.751 170.914 412.17 169.901 412.17 168.845C412.17 167.789 411.751 166.777 411.005 166.029L387.053 142.093C386.39 141.431 385.865 140.646 385.506 139.781C385.148 138.916 384.963 137.989 384.963 137.053C384.963 136.117 385.148 135.19 385.506 134.325C385.865 133.46 386.39 132.674 387.053 132.012C388.387 130.685 390.192 129.937 392.074 129.932C393.957 129.926 395.766 130.662 397.109 131.981L429.343 163.789C429.978 164.416 430.483 165.162 430.827 165.986C431.171 166.809 431.349 167.692 431.349 168.585C431.349 169.477 431.171 170.361 430.827 171.184C430.483 172.007 429.978 172.754 429.343 173.381L396.978 205.318C395.678 206.601 393.923 207.318 392.096 207.314Z" fill="#5653F4"/>
<path d="M60.3729 208.998C69.0099 208.998 76.0115 201.998 76.0115 193.363C76.0115 184.728 69.0099 177.728 60.3729 177.728C51.736 177.728 44.7344 184.728 44.7344 193.363C44.7344 201.998 51.736 208.998 60.3729 208.998Z" fill="#FFB8B8"/>
<path d="M7.53082 380.723L11.4906 387.449L39.323 375.38L33.4785 365.454L7.53082 380.723Z" fill="#FFB8B8"/>
<path d="M8.71733 377.716L16.5155 390.961C17.1681 392.069 17.5962 393.296 17.7748 394.57C17.9535 395.844 17.8794 397.14 17.5568 398.385C17.2343 399.63 16.6696 400.8 15.8949 401.827C15.1203 402.854 14.1509 403.718 13.0422 404.371L12.7678 404.532L0 382.846L8.71733 377.716Z" fill="#2F2E41"/>
<path d="M53.4111 404.953L61.2173 404.953L64.9306 374.85L53.4098 374.851L53.4111 404.953Z" fill="#FFB8B8"/>
<path d="M51.4201 402.405L66.7929 402.405C68.0795 402.405 69.3541 402.658 70.5427 403.15C71.7313 403.642 72.8113 404.364 73.7211 405.273C74.6308 406.183 75.3524 407.263 75.8448 408.451C76.3371 409.639 76.5905 410.913 76.5905 412.199V412.517L51.4206 412.518L51.4201 402.405Z" fill="#2F2E41"/>
<path d="M22.028 386.715C21.5787 386.716 21.1357 386.61 20.7349 386.407C20.334 386.205 19.9865 385.91 19.7205 385.549L12.1921 375.326C11.9624 375.014 11.7984 374.659 11.7099 374.282C11.6214 373.905 11.6102 373.514 11.6772 373.133C11.7441 372.751 11.8877 372.387 12.0992 372.063C12.3108 371.739 12.586 371.46 12.9081 371.245L46.4086 348.875L26.1948 295.737L69.4213 299.304L70.8773 344.967C71.0139 349.126 71.0486 350.982 69.0247 354.617C67.0008 358.253 54.3957 368.042 50.7887 370.117L23.4595 386.331C23.0245 386.582 22.5307 386.715 22.028 386.715Z" fill="#2F2E41"/>
<path d="M53.6468 398.842C52.9054 398.841 52.1935 398.552 51.6605 398.037C51.1275 397.522 50.815 396.82 50.7887 396.079V370.117L55.5247 366.85L60.2988 363.117L64.9391 359.117L67.1853 356.922L69.0247 354.617L67.2589 395.366C67.2359 396.076 66.9492 396.751 66.4548 397.261C65.9605 397.771 65.2938 398.079 64.5848 398.124L53.8415 398.836C53.7764 398.84 53.7114 398.842 53.6468 398.842Z" fill="#2F2E41"/>
<path d="M74.424 308.137C69.4331 308.137 52.0008 302.525 45.949 300.524C45.0437 301.249 40.0701 304.967 34.2645 304.287C30.6823 303.867 27.5287 301.84 24.8914 298.262C19.0673 290.359 26.2607 256.47 33.3209 229.431C34.7363 223.966 38.216 219.262 43.0284 216.308C47.8408 213.355 53.6111 212.382 59.1263 213.593C63.1237 214.476 66.7958 216.455 69.7301 219.309C72.6644 222.162 74.7445 225.778 75.7369 229.748C77.0662 235.158 75.9227 241.521 75.0877 246.168C74.6952 248.353 74.3851 250.078 74.4911 250.926C74.9009 254.204 77.1773 305.603 75.7136 307.798C75.5577 308.032 75.1069 308.137 74.424 308.137Z" fill="#5653F4"/>
<path d="M56.166 308.228C56.9682 307.631 57.6296 306.866 58.1038 305.986C58.5779 305.105 58.8533 304.132 58.9104 303.134C58.9676 302.136 58.8052 301.137 58.4346 300.209C58.064 299.28 57.4943 298.444 56.7656 297.759L57.0746 235.474L42.4015 237.917L46.7116 298.373C45.6424 299.673 45.0873 301.32 45.1516 303.002C45.2159 304.684 45.8951 306.284 47.0605 307.499C48.2259 308.714 49.7965 309.459 51.4747 309.594C53.1529 309.728 54.8221 309.242 56.166 308.228Z" fill="#FFB8B8"/>
<path d="M59.5598 275.474H43.7552C43.0004 275.472 42.2769 275.173 41.7408 274.642C41.2046 274.111 40.899 273.39 40.8899 272.636L40.5019 229.799C40.4885 228.318 40.7689 226.849 41.327 225.477C41.8851 224.105 42.7097 222.857 43.7532 221.805C44.7967 220.754 46.0384 219.919 47.4065 219.351C48.7745 218.782 50.2418 218.49 51.7234 218.492C53.2049 218.494 54.6715 218.789 56.0381 219.361C57.4048 219.933 58.6444 220.771 59.6854 221.825C60.7263 222.879 61.5479 224.129 62.1026 225.502C62.6573 226.876 62.9342 228.345 62.9171 229.827L62.4248 272.643C62.4136 273.396 62.1071 274.114 61.5713 274.644C61.0355 275.174 60.3132 275.472 59.5598 275.474Z" fill="#5653F4"/>
<path d="M56.391 208.933C49.2309 208.946 42.476 203.288 41.2352 196.238C40.791 193.468 40.9912 190.633 41.8205 187.954C42.7209 184.903 44.2649 182.081 46.3486 179.677C48.4323 177.274 51.0071 175.345 53.8996 174.021C56.7921 172.696 59.9349 172.007 63.1163 172C66.2976 171.993 69.4435 172.668 72.342 173.979C74.2574 174.846 76.1441 176.09 77.0212 178C77.8982 179.911 77.3493 182.581 75.4307 183.44C74.1769 184.002 72.6035 183.726 71.4912 184.533C69.8935 185.691 70.3047 188.156 71.0182 189.995C71.7316 191.835 72.5385 194.061 71.3426 195.63C70.2282 197.093 68.0006 197.047 66.246 196.497C64.4914 195.947 62.7596 195.025 60.9303 195.212C58.2621 195.486 56.3448 198.139 55.9899 200.797C55.635 203.455 56.4704 206.112 57.2953 208.663L56.391 208.933Z" fill="#2F2E41"/>
</svg>
